# xmcd CD database file
#
# Track frame offsets:
#	150
#	17017
#	35338
#	54352
#	73765
#	99474
#	111935
#
# Disc length: 1855 seconds
#
# Revision: 0
# Processed by: cddbd v1.5.2PL0 Copyright (c) Steve Scherf et al.
# Submitted via: cdripper 1,0,39,0213
#
DISCID=55073d07
DTITLE=Jeff Keith and Country Music Friends - Jeff Keith and Country Music Friends
DYEAR=2012
DGENRE=Country
TTITLE0=Same Ol' Cowboy
TTITLE1=Life Is Just A Roller Coaster Ride
TTITLE2=I Can't Let Go
TTITLE3=Life On The Road
TTITLE4=Oklahoma Bound 
TTITLE5=Oh Hell
TTITLE6=CMF Interviews
EXTD=YEAR: 2012
EXTT0=
EXTT1=
EXTT2=
EXTT3=
EXTT4=
EXTT5=
EXTT6=
PLAYORDER=
